HIERARCHY
ROOT joint_0
{
	OFFSET 0.000000 0.000000 0.000000
	CHANNELS 6 Xposition Yposition Zposition Zrotation Yrotation Xrotation 
	JOINT joint_1
	{
		OFFSET 3.886261 -0.864090 119.041016
		CHANNELS 3 Zrotation Yrotation Xrotation
		JOINT joint_2
		{
			OFFSET -8.814819 -1.400200 108.366943
			CHANNELS 3 Zrotation Yrotation Xrotation
			JOINT joint_3
			{
				OFFSET -10.127777 -1.846550 108.123047
				CHANNELS 3 Zrotation Yrotation Xrotation
				JOINT joint_4
				{
					OFFSET -0.104309 -2.852760 150.227051
					CHANNELS 3 Zrotation Yrotation Xrotation
					JOINT joint_5
					{
						OFFSET 20.206146 2.292160 92.163940
						CHANNELS 3 Zrotation Yrotation Xrotation
						End Site
						{
							OFFSET 0.000000 0.000000 0.000000
						}
					}
				}
				JOINT joint_6
				{
					OFFSET 0.345886 -34.260384 83.589966
					CHANNELS 3 Zrotation Yrotation Xrotation
					JOINT joint_7
					{
						OFFSET -3.824402 -146.174217 -19.015991
						CHANNELS 3 Zrotation Yrotation Xrotation
						JOINT joint_8
						{
							OFFSET 134.098145 -24.802032 -261.230957
							CHANNELS 3 Zrotation Yrotation Xrotation
							JOINT joint_9
							{
								OFFSET 123.899048 209.340523 59.187012
								CHANNELS 3 Zrotation Yrotation Xrotation
								End Site
								{
									OFFSET 0.000000 0.000000 0.000000
								}
							}
						}
					}
				}
				JOINT joint_10
				{
					OFFSET -0.423798 31.098438 84.831055
					CHANNELS 3 Zrotation Yrotation Xrotation
					JOINT joint_11
					{
						OFFSET 3.093201 146.891491 -12.504028
						CHANNELS 3 Zrotation Yrotation Xrotation
						JOINT joint_12
						{
							OFFSET 195.631927 -20.967743 -219.380981
							CHANNELS 3 Zrotation Yrotation Xrotation
							JOINT joint_13
							{
								OFFSET -8.651001 -247.511261 -36.616089
								CHANNELS 3 Zrotation Yrotation Xrotation
								End Site
								{
									OFFSET 0.000000 0.000000 0.000000
								}
							}
						}
					}
				}
			}
		}
	}
	JOINT joint_14
	{
		OFFSET 6.948090 -87.642914 -106.942017
		CHANNELS 3 Zrotation Yrotation Xrotation
		JOINT joint_15
		{
			OFFSET -34.394226 4.543823 -458.972961
			CHANNELS 3 Zrotation Yrotation Xrotation
			JOINT joint_16
			{
				OFFSET -17.051544 6.964645 -485.636009
				CHANNELS 3 Zrotation Yrotation Xrotation
				JOINT joint_17
				{
					OFFSET 190.520630 40.462875 -83.888000
					CHANNELS 3 Zrotation Yrotation Xrotation
					End Site
					{
						OFFSET 0.000000 0.000000 0.000000
					}
				}
			}
		}
	}
	JOINT joint_18
	{
		OFFSET 3.929901 87.535423 -107.188965
		CHANNELS 3 Zrotation Yrotation Xrotation
		JOINT joint_19
		{
			OFFSET -34.463440 -10.383845 -458.873047
			CHANNELS 3 Zrotation Yrotation Xrotation
			JOINT joint_20
			{
				OFFSET 14.641205 -11.071349 -485.637978
				CHANNELS 3 Zrotation Yrotation Xrotation
				JOINT joint_21
				{
					OFFSET 194.569275 -4.161928 -84.249998
					CHANNELS 3 Zrotation Yrotation Xrotation
					End Site
					{
						OFFSET 0.000000 0.000000 0.000000
					}
				}
			}
		}
	}
}
MOTION
Frames: 10
Frame Time: 0.016667
-281.790100 49.225140 1117.129028 1.028747 4.271726 -5.029287 3.728077 -0.980345 -6.208735 3.017596 -0.083884 1.232569 2.415418 -0.295357 -1.329865 0.310045 2.559842 -1.486275 0.000000 0.000000 0.000000 5.393412 11.158247 -1.477019 -1.354493 23.143870 -9.594758 -57.230522 18.151561 -80.151380 0.000000 0.000000 0.000000 3.583388 9.577228 0.415926 39.081929 7.789829 4.752506 -15.477402 3.229244 -58.309521 0.000000 0.000000 0.000000 4.641729 -3.771429 -6.241788 3.360114 37.136989 5.174789 6.199026 -0.772345 2.605626 0.000000 0.000000 0.000000 -4.727311 -31.292189 18.090532 -3.305819 29.619886 0.129019 -3.289311 -1.875341 -1.363185 0.000000 0.000000 0.000000 
-270.659180 55.905334 1110.786011 1.240404 3.618998 -4.432720 3.744771 -0.766007 -7.344502 2.664120 -0.011645 1.294192 1.953491 -0.333096 -1.374918 0.203179 2.602496 -1.018118 0.000000 0.000000 0.000000 3.811433 11.779736 -1.066232 -1.651214 22.660263 -10.047870 -59.088454 18.353388 -78.823905 0.000000 0.000000 0.000000 2.693591 8.843254 0.604268 39.639563 8.210289 4.640831 -14.192667 3.567973 -57.412283 0.000000 0.000000 0.000000 5.832350 -5.021065 -8.116302 4.002294 41.888866 6.897959 8.817840 1.330959 3.243229 0.000000 0.000000 0.000000 -5.254380 -32.394076 18.275976 -3.369565 34.503281 -1.736530 -3.132655 -4.774002 -1.368530 0.000000 0.000000 0.000000 
-259.993866 62.092899 1105.739014 1.338668 3.028165 -3.928608 3.863437 -0.399701 -8.292557 2.401399 -0.030672 1.353987 1.583742 -0.350826 -1.410214 0.130179 2.496542 -0.689909 0.000000 0.000000 0.000000 2.402782 12.484865 -0.753455 -1.754663 22.353801 -10.230322 -60.567435 18.615890 -77.498775 0.000000 0.000000 0.000000 1.824120 8.115755 0.570743 40.312534 8.530642 4.600506 -12.650139 3.921746 -56.331609 0.000000 0.000000 0.000000 6.814357 -6.311284 -9.900720 4.470506 46.301616 8.388175 11.568313 3.894420 3.947233 0.000000 0.000000 0.000000 -5.769542 -33.130983 18.516749 -3.380672 38.651357 -3.464009 -2.908645 -7.097548 -1.344221 0.000000 0.000000 0.000000 
-249.043076 68.073380 1102.260010 1.167423 2.551942 -3.926802 4.012734 -0.130111 -8.466739 2.278200 -0.095743 1.373723 1.386379 -0.306723 -1.417593 0.137114 2.386855 -0.707868 0.000000 0.000000 0.000000 1.663842 13.271460 -0.688686 -1.657662 22.390498 -10.076374 -61.484333 18.999644 -76.380415 0.000000 0.000000 0.000000 1.296975 7.473242 0.313438 40.858696 8.703403 4.564186 -11.165907 4.252213 -55.217827 0.000000 0.000000 0.000000 7.422975 -7.569270 -11.130175 4.765336 50.068290 9.525139 13.874979 6.177764 4.690504 0.000000 0.000000 0.000000 -6.321913 -32.932684 18.925048 -3.214967 40.998956 -4.448298 -2.529745 -9.013826 -1.249010 0.000000 0.000000 0.000000 
-238.184418 73.757530 1100.228027 0.957627 2.263265 -4.216076 4.176411 0.022117 -8.159580 2.222454 -0.158187 1.382671 1.273159 -0.202247 -1.400113 0.207749 2.166571 -0.986228 0.000000 0.000000 0.000000 1.361532 14.189095 -0.746147 -1.376382 22.677401 -9.621925 -62.151562 19.454009 -75.332567 0.000000 0.000000 0.000000 0.966052 6.894613 -0.160757 41.385086 8.776845 4.500506 -9.535532 4.574459 -53.989058 0.000000 0.000000 0.000000 7.752788 -9.018336 -12.044374 4.933773 53.577983 10.441744 15.851051 8.398746 5.494948 0.000000 0.000000 0.000000 -6.930988 -32.310191 19.392300 -2.926680 42.281690 -4.982541 -1.981444 -10.787943 -1.079093 0.000000 0.000000 0.000000 
-227.844177 78.564423 1099.364990 0.851571 2.073709 -4.516705 4.329152 0.099221 -7.850666 2.200331 -0.208126 1.399790 1.210402 -0.116049 -1.379762 0.275553 1.979259 -1.258589 0.000000 0.000000 0.000000 1.213885 15.013347 -0.769790 -0.788142 23.022373 -8.902834 -62.611370 19.725944 -74.857866 0.000000 0.000000 0.000000 0.710720 6.312035 -0.594804 41.614202 8.768308 4.430249 -7.991613 4.809153 -52.522547 0.000000 0.000000 0.000000 7.594630 -10.543538 -12.725614 4.791595 56.768339 10.682883 16.483905 9.858640 6.078374 0.000000 0.000000 0.000000 -7.491809 -31.574867 19.719730 -2.657771 43.020700 -5.285111 -1.458653 -12.249289 -0.906737 0.000000 0.000000 0.000000 
-218.406235 82.097855 1099.569946 0.941372 1.928003 -4.650022 4.463988 0.125825 -7.835033 2.198592 -0.232942 1.412531 1.190289 -0.113375 -1.367305 0.291495 1.947372 -1.331753 0.000000 0.000000 0.000000 1.086277 15.562764 -0.696141 0.183125 23.287748 -7.831736 -62.706369 19.537587 -75.501381 0.000000 0.000000 0.000000 0.465750 5.631199 -0.827014 41.249666 8.658912 4.321899 -6.652292 4.905905 -50.604072 0.000000 0.000000 0.000000 6.828968 -12.069009 -13.182190 4.246894 59.611767 9.966870 14.909238 9.610073 6.153933 0.000000 0.000000 0.000000 -7.949955 -30.932445 19.771680 -2.501743 43.528740 -5.443203 -1.098979 -13.243395 -0.784308 0.000000 0.000000 0.000000 
-209.718948 84.578705 1100.948975 1.175834 1.871150 -4.728583 4.563698 0.061843 -7.916797 2.239838 -0.223967 1.406767 1.245495 -0.162722 -1.359616 0.280683 2.011304 -1.306382 0.000000 0.000000 0.000000 1.079544 15.923052 -0.548495 1.427169 23.481959 -6.396145 -62.352262 18.996132 -77.098083 0.000000 0.000000 0.000000 0.262458 4.892672 -0.962536 40.384752 8.433988 4.152854 -5.423035 4.887773 -48.280845 0.000000 0.000000 0.000000 5.600018 -13.660569 -13.356856 3.459687 62.091631 8.612471 11.693050 7.718492 5.751246 0.000000 0.000000 0.000000 -8.343524 -30.306887 19.636808 -2.402452 43.656735 -5.367444 -0.814899 -13.887757 -0.679724 0.000000 0.000000 0.000000 
-201.249908 86.063133 1103.133057 1.547049 1.897437 -4.842424 4.551625 -0.101270 -7.990584 2.281948 -0.194573 1.401492 1.323300 -0.225606 -1.356194 0.262333 2.098782 -1.251740 0.000000 0.000000 0.000000 1.045234 16.217330 -0.338703 2.592037 23.552796 -4.909539 -61.759936 18.408665 -78.862649 0.000000 0.000000 0.000000 0.042031 4.389630 -1.030017 39.575142 8.172639 4.168589 -4.512290 4.766400 -46.264962 0.000000 0.000000 0.000000 4.098500 -15.251310 -13.256911 2.542730 63.912052 7.010867 7.892320 5.388721 4.843117 0.000000 0.000000 0.000000 -8.698343 -29.631830 19.515340 -2.375854 43.396073 -5.225515 -0.620734 -14.295632 -0.603286 0.000000 0.000000 0.000000 
-192.580887 86.450066 1106.010986 2.063196 2.003625 -5.077298 4.369739 -0.382924 -7.976106 2.298016 -0.150764 1.407926 1.386895 -0.283820 -1.357548 0.246096 2.174807 -1.200824 0.000000 0.000000 0.000000 0.854452 16.530322 -0.088454 3.546749 23.488480 -3.512038 -61.121471 17.855950 -80.386063 0.000000 0.000000 0.000000 -0.243617 4.329720 -0.993988 39.214330 7.947916 4.587370 -4.117358 4.561550 -45.071149 0.000000 0.000000 0.000000 2.216132 -16.803284 -12.792375 1.359449 64.921675 5.172093 3.436551 3.386427 3.254299 0.000000 0.000000 0.000000 -9.034611 -28.832846 19.582762 -2.443501 42.689427 -5.141199 -0.546042 -14.502917 -0.569043 0.000000 0.000000 0.000000 
